# xmcd
#
# Track frame offsets:
#	150
#	11025
#	20095
#	30392
#	37880
#	46542
#	58025
#	68435
#	80972
#	93470
#	102552
#	110375
#	121535
#	130070
#	135897
#	149827
#	160230
#	170715
#	178835
#
# Disc length: 2487 seconds
#
# Revision: 0
# Processed by: cddbd v1.4PL0 Copyright (c) Steve Scherf et al.
# Submitted via: EasyCDDAExtractor 4.6.9.1
#
DISCID=fc09b513
DTITLE=Mac Martin and The Dixie Travelers - A Dark Starless Night
DYEAR=2001
DGENRE=Bluegrass
TTITLE0=Just To Ease My Worried Mind
TTITLE1=Weary Lonesome Blues
TTITLE2=Alcatraz Blues
TTITLE3=I'll Be A Friend To Jesus
TTITLE4=Peacock Rag
TTITLE5=Are You Lonely Now?
TTITLE6=This Rambler's Ramblin'
TTITLE7=Dixie Bound
TTITLE8=Dying Boy's Prayer
TTITLE9=Come Back Darling
TTITLE10=Farewell Blues
TTITLE11=Lonesome Without You
TTITLE12=A Dark Starless Night
TTITLE13=Sugar In The Gourd
TTITLE14=Sinner Where You Gonna Hide
TTITLE15=I Knew The Moment I Lost You
TTITLE16=Limehouse Blues
TTITLE17=I'm Waiting To Hear You Call Me Darling
TTITLE18=Lee Highway Blues
EXTD=
EXTT0=
EXTT1=
EXTT2=
EXTT3=
EXTT4=
EXTT5=
EXTT6=
EXTT7=
EXTT8=
EXTT9=
EXTT10=
EXTT11=
EXTT12=
EXTT13=
EXTT14=
EXTT15=
EXTT16=
EXTT17=
EXTT18=
PLAYORDER=
